<?xml version="1.0" encoding="UTF-8"?> <!-- Generator: Adobe Illustrator 25.4.1, SVG Export Plug-In . SVG Version: 6.00 Build 0) --> <svg xmlns="http://www.w3.org/2000/svg" xmlns:xlink="http://www.w3.org/1999/xlink" version="1.1" id="Layer_1" x="0px" y="0px" viewBox="0 0 398 103" style="enable-background:new 0 0 398 103;" xml:space="preserve"> <style type="text/css"> .st0{fill:#85C1CF;} .st1{fill:#283777;} </style> <g id="logo"> <g id="Group" transform="translate(-0.000000, 0.000000)"> <path id="Path" class="st0" d="M127.7,51c0-28.2-22.8-51-51-51c-28.2,0-51,22.8-51,51c0,28.2,22.8,51,51,51 C104.9,102,127.7,79.2,127.7,51"></path> <path id="Path_00000036947701864155312090000005632218309549612430_" class="st1" d="M91.6,12c0,4.1-3.3,7.4-7.4,7.4 c-4.1,0-7.4-3.3-7.4-7.4s3.3-7.4,7.4-7.4C88.3,4.6,91.6,7.9,91.6,12"></path> <path id="Path_00000111881920443369778270000013947040260518701475_" class="st1" d="M45.1,43.6c4.1,0,7.4,3.3,7.4,7.4 c0,4.1-3.3,7.4-7.4,7.4c-4.1,0-7.4-3.3-7.4-7.4C37.7,46.9,41,43.6,45.1,43.6"></path> <path id="Path_00000046339053178599298930000016502897517436545159_" class="st1" d="M52.6,12c0,4.1-3.3,7.4-7.4,7.4 c-4.1,0-7.4-3.3-7.4-7.4s3.3-7.4,7.4-7.4C49.2,4.6,52.6,7.9,52.6,12"></path> <path id="Path_00000018204732199171611010000008174955974250932668_" class="st1" d="M37.7,90.1c0-4.1,3.3-7.4,7.4-7.4 c4.1,0,7.4,3.3,7.4,7.4c0,4.1-3.3,7.4-7.4,7.4C41,97.5,37.7,94.2,37.7,90.1"></path> <path id="Path_00000070112652648664402660000013630293451331821456_" class="st1" d="M7.4,43.6c4.1,0,7.4,3.3,7.4,7.4 c0,4.1-3.3,7.4-7.4,7.4C3.3,58.5,0,55.1,0,51C0,46.9,3.3,43.6,7.4,43.6"></path> <polygon id="Path_00000021830429404178778780000009641180596478975668_" class="st1" points="84.2,31.5 89.4,45.8 103.7,51 89.4,56.3 84.2,70.5 78.9,56.3 64.7,51 78.9,45.8 "></polygon> </g> <g id="font_1_1" transform="translate(158.232002, 82.085800) scale(-1, 1) rotate(-180.000000) translate(-158.232002, -82.085800) translate(144.034500, 66.583300)"> <path id="Shape" class="st1" d="M23.5,0h4.9L16.7,31h-4.9L0,0h4.9l2.9,7.8h12.9L23.5,0 M9.2,11.9l4.9,13.4l5-13.4H9.2z"></path> </g> <g id="font_1_3" transform="translate(190.497002, 82.153319) scale(-1, 1) rotate(-180.000000) translate(-190.497002, -82.153319) translate(176.659500, 66.268318)"> <path id="Path_00000169523486016465722310000016826116352345807506_" class="st1" d="M15.8,0c4.9,0,9.2,2.2,11.9,5.6l-3.4,2.7 c-2-2.4-5-4-8.5-4C9.4,4.3,4.6,9.5,4.6,15.9c0,6.4,4.9,11.6,11.2,11.6c3.4,0,6.5-1.5,8.5-4l3.4,2.7c-2.7,3.4-7,5.6-11.9,5.6 C7,31.8,0,24.7,0,15.9S7,0,15.8,0z"></path> </g> <g id="font_1_1_00000170243873852552738990000003279527695490383804_" transform="translate(222.087002, 82.085800) scale(-1, 1) rotate(-180.000000) translate(-222.087002, -82.085800) translate(207.889500, 66.583300)"> <path id="Shape_00000136394510879260476110000008869201850738983841_" class="st1" d="M23.5,0h4.9L16.7,31h-4.9L0,0h4.9l2.9,7.8 h12.9L23.5,0 M9.2,11.9l4.9,13.4l5-13.4H9.2z"></path> </g> <g id="font_1_4" transform="translate(255.634502, 82.085800) scale(-1, 1) rotate(-180.000000) translate(-255.634502, -82.085800) translate(242.584500, 66.583300)"> <path id="Shape_00000166647680624481783510000009531682510548025484_" class="st1" d="M0,0h12.1c8.9,0,14,6.7,14,15.4 c0,8.8-5.2,15.6-14,15.6H0V0 M4.6,4.2v22.5h7.4c6.2,0,9.4-5,9.4-11.3S18.3,4.2,12.1,4.2H4.6z"></path> </g> <g id="font_1_5" transform="translate(286.729561, 82.085800) scale(-1, 1) rotate(-180.000000) translate(-286.729561, -82.085800) translate(277.234560, 66.583300)"> <polygon id="Path_00000161603223310691681990000016010773092139254407_" class="st1" points="4.6,4.2 4.6,13.1 16.8,13.1 16.8,17.4 4.6,17.4 4.6,26.8 18.6,26.8 18.6,31 0,31 0,0 19,0 19,4.2 "></polygon> </g> <g id="font_1_9" transform="translate(321.649571, 82.085800) scale(-1, 1) rotate(-180.000000) translate(-321.649571, -82.085800) translate(303.064570, 66.583300)"> <polygon id="Path_00000169528861437041769930000006759725494071495558_" class="st1" points="37.2,0 33.4,31 29.3,31 18.6,8.7 7.9,31 3.8,31 0,0 4.6,0 7.3,22.5 16.7,3.4 20.6,3.4 29.8,22.5 32.6,0 "></polygon> </g> <g id="font_1_f" transform="translate(359.112100, 82.085800) scale(-1, 1) rotate(-180.000000) translate(-359.112100, -82.085800) translate(344.914600, 66.583300)"> <polygon id="Path_00000031895737617559541500000018412657358919164594_" class="st1" points="22.9,31 14.1,18.6 5.5,31 0,31 11.8,14.2 11.8,0 16.5,0 16.5,14.2 28.4,31 "></polygon> </g> <g id="Group_00000060003357420700169490000008021289421522098338_" transform="translate(382.214500, 82.729610)"> <path id="Path_00000096031679213233726850000009092801160201488806_" class="st1" d="M14.9,7.4c0,4.1-3.3,7.4-7.4,7.4 C3.3,14.9,0,11.5,0,7.4C0,3.3,3.3,0,7.4,0C11.5,0,14.9,3.3,14.9,7.4"></path> </g> </g> <g> <path class="st1" d="M144,34.5h4.6c0.1,2.7,2.6,5.2,6.4,5.2c3.7,0,5.9-2.3,5.9-4.9c0-2.7-2.5-4.1-5-4.7l-4-1 c-6.6-1.7-7.7-5.6-7.7-8.2c0-5.5,4.8-9.1,10.3-9.1c5.6,0,10,3.5,10,9.2h-4.6c0-2.9-2.3-5-5.5-5c-2.9,0-5.5,1.9-5.5,4.8 c0,1,0.3,3,4.2,4.1l3.9,1.1c5.2,1.4,8.5,4.1,8.5,8.6c0,5.2-4.2,9.4-10.5,9.4C148.4,43.9,144,39.5,144,34.5z"></path> <path class="st1" d="M184.2,12.3c6.7,0,9.5,4.9,9.5,9.8c0,5-2.8,9.7-9.5,9.7h-7.8v11.5h-4.6v-31H184.2z M183.9,27.7 c3.6,0,5.1-2.7,5.1-5.5c0-2.7-1.4-5.6-4.9-5.6h-7.7v11.1H183.9z"></path> <path class="st1" d="M197.2,27.9c0-8.8,6.8-16.1,15.7-16.1c8.9,0,15.8,7.3,15.8,16.1c0,8.8-6.9,16-15.8,16 C204,43.9,197.2,36.7,197.2,27.9z M224,27.9c0-6.4-4.8-11.8-11.1-11.8c-6.3,0-11,5.4-11,11.8c0,6.4,4.7,11.7,11,11.7 C219.2,39.6,224,34.3,224,27.9z"></path> <path class="st1" d="M251.1,43.4l-8-11.6h-3.5v11.6h-4.6v-31h11.8c6.8,0,9.6,4.9,9.6,9.8c0,4.5-2.7,9.1-7.9,9.6l8.2,11.6H251.1z M239.6,16.6v11.2h6.1c4.3,0,6-2.3,6-5.6c0-3.2-1.9-5.6-5-5.6H239.6z"></path> <path class="st1" d="M282.2,12.3v4.2H273v26.8h-4.6V16.6h-9.2v-4.2H282.2z"></path> </g> </svg> 